<svg id="Layer_1" data-name="Layer 1" xmlns="http://www.w3.org/2000/svg" viewBox="0 0 133.98 186.16"><defs><style>.cls-1{fill:#efc3c6;}</style></defs><title>nav-01</title><path class="cls-1" d="M4.27,122.36a148.68,148.68,0,0,1,2-20.94A238.79,238.79,0,0,1,14.64,67,235.13,235.13,0,0,1,27.09,34.62c7.81-16,20.67-25.23,38.38-27.17,19.78-2.17,38.36,8.27,47.44,26a245.25,245.25,0,0,1,20.17,53.42c3.28,13.32,5.34,26.81,5.09,40.56a65.36,65.36,0,0,1-18.73,45.42A63.85,63.85,0,0,1,84,192.07c-22.2,4-41.87-1.55-58.54-16.8a65,65,0,0,1-20.12-36.4A71.24,71.24,0,0,1,4.27,122.36Zm102.65-5.26a35.72,35.72,0,1,0-36,35.66A35.75,35.75,0,0,0,106.92,117.1Z" transform="translate(-4.21 -7.16)"/></svg>
