<svg id="Layer_1" data-name="Layer 1" xmlns="http://www.w3.org/2000/svg" viewBox="0 0 183.83 138.01"><defs><style>.cls-1{fill:#7fc5c0;}</style></defs><title>nav-02</title><path class="cls-1" d="M70.51,144.71c-9.89-.25-19.69-.83-29.11-4.09-17.31-6-27.37-18.43-31-36.06C5.52,81.21,19.63,60.64,37.11,51.62a42.85,42.85,0,0,1,19.9-5c1.83,0,3.67.26,5.5.32a87.55,87.55,0,0,0,31.42-4.27,50.25,50.25,0,0,0,18.13-10.47,39.46,39.46,0,0,0,6.08-8,55.72,55.72,0,0,1,5.62-7.88c4.58-4.94,10.54-7.59,17.07-8.82C159.1,4,176.37,12.23,185.92,28.82a54.4,54.4,0,0,1,6.42,37.37c-2.59,15.16-9.74,28-20.11,39.2-11.58,12.48-25.71,21.2-41.37,27.55a151.88,151.88,0,0,1-41.47,10.35C83.11,143.95,76.8,144.25,70.51,144.71Zm20.2-71.47v.1c1.2-.05,2.39-.09,3.59-.16.92-.06,1.83-.14,2.74-.26a59.41,59.41,0,0,0,38.2-20.4,58.27,58.27,0,0,0,10.65-17.92,5.78,5.78,0,0,0-3.81-7.81c-3-.87-5.87.72-7.16,3.85C128,47.44,115.62,57.69,97.7,61a69.35,69.35,0,0,1-10.26.66,5.87,5.87,0,0,0-5.86,5.62,5.69,5.69,0,0,0,5.42,6C88.23,73.3,89.47,73.24,90.71,73.24Z" transform="translate(-9.4 -6.7)"/></svg>
