<svg id="Layer_1" data-name="Layer 1" xmlns="http://www.w3.org/2000/svg" viewBox="0 0 193.65 241.08"><defs><style>.cls-1{fill:#ffffff;}</style></defs><title>nav-03</title><path class="cls-1" d="M107,84.21c0-8.33,0-16.67,0-25a29.51,29.51,0,0,1,58.46-5.59c.81,4,.21,7.92-.37,11.87q-2.88,19.79-5.7,39.58-2.17,15.09-4.33,30.18A15.25,15.25,0,0,0,166,151.92c10.5,3,20.9-5.5,19.62-16.36-.95-8,3.57-13.1,8.44-14.86a13.13,13.13,0,0,1,17.69,11.89c.27,11.83-1.13,23.47-6,34.43-4.17,9.33-10.5,16.69-20.2,20.54a26.18,26.18,0,0,1-9,2.14c-7.59.1-14.48,9-11.35,17.6,1.66,4.55,4.43,8.12,9.39,9.24,2,.45,4.17.27,6.25.47,9.67.92,17.78,8,19,17,1.56,11.18-2.3,22.66-13.84,29.45a53.56,53.56,0,0,1-20.12,6.51,85.72,85.72,0,0,1-24,.12c-15.67-2.23-27.85-16.5-27.94-32.33,0-8.16-.9-16.22-4-23.87-4.59-11.25-12.93-18.68-24-23.18a70.46,70.46,0,0,0-11.2-3.59c-9-2-16-7-21.76-13.93a82.63,82.63,0,0,1-13.47-24.27c-5.17-14-10.08-28.14-15.06-42.23-1.84-5.19-3.87-10.34-5.29-15.65-2.18-8.1-.91-15.72,5-22C34,58.51,52,60.42,59.7,72.64c3.8,6,5.64,12.75,7,19.63,1.48,7.25,2.58,14.58,5.22,21.55,1.66,4.38,3.76,8.52,7.26,11.75,7.08,6.54,18.74,4.94,24.58-3.33a21.88,21.88,0,0,0,3.69-12.91c0-5.82-.36-11.63-.52-17.45-.07-2.55,0-5.11,0-7.67Z" transform="translate(-18.12 -29.77)"/></svg>
